<?xml version="1.0" encoding="UTF-8"?>
<svg version="1.1" xmlns="http://www.w3.org/2000/svg" width="180" height="180">
<path d="M0 0 C3.66311906 2.56237885 7.01004669 5.05692169 10.171875 8.21875 C10.171875 8.87875 10.171875 9.53875 10.171875 10.21875 C10.831875 10.21875 11.491875 10.21875 12.171875 10.21875 C13.4609375 11.6796875 13.4609375 11.6796875 14.796875 13.59375 C15.24289063 14.22023438 15.68890625 14.84671875 16.1484375 15.4921875 C17.171875 17.21875 17.171875 17.21875 17.171875 19.21875 C17.831875 19.21875 18.491875 19.21875 19.171875 19.21875 C30.47636163 39.25711398 34.07684251 58.64737177 28.171875 81.21875 C25.50967799 89.46863523 21.52421535 97.36991147 16.171875 104.21875 C15.511875 104.21875 14.851875 104.21875 14.171875 104.21875 C13.511875 105.86875 12.851875 107.51875 12.171875 109.21875 C11.511875 109.21875 10.851875 109.21875 10.171875 109.21875 C10.171875 109.87875 10.171875 110.53875 10.171875 111.21875 C-5.71694127 126.50997805 -24.02858482 131.62529146 -45.4140625 131.37109375 C-58.30823158 131.04040395 -69.87758872 126.90367041 -80.828125 120.21875 C-81.45203125 119.84363281 -82.0759375 119.46851563 -82.71875 119.08203125 C-84.13225984 118.19363371 -85.48840691 117.21495063 -86.828125 116.21875 C-86.828125 115.55875 -86.828125 114.89875 -86.828125 114.21875 C-87.42625 113.950625 -88.024375 113.6825 -88.640625 113.40625 C-90.82660354 112.21957594 -92.24145094 111.12275887 -93.828125 109.21875 C-93.828125 108.55875 -93.828125 107.89875 -93.828125 107.21875 C-95.313125 106.72375 -95.313125 106.72375 -96.828125 106.21875 C-105.10019177 96.69215178 -109.24903171 85.38231159 -111.828125 73.21875 C-112.01375 72.44144531 -112.199375 71.66414063 -112.390625 70.86328125 C-115.75723649 50.51331716 -109.57450191 31.1186622 -97.81640625 14.640625 C-97.16027344 13.84140625 -96.50414063 13.0421875 -95.828125 12.21875 C-95.168125 12.21875 -94.508125 12.21875 -93.828125 12.21875 C-93.6115625 11.66058594 -93.395 11.10242188 -93.171875 10.52734375 C-87.12650234 0.14125292 -73.47721874 -5.99439484 -62.4453125 -9.10546875 C-61.58164063 -9.32847656 -60.71796875 -9.55148438 -59.828125 -9.78125 C-58.6215625 -10.12929687 -57.415 -10.47734375 -56.171875 -10.8359375 C-36.8038609 -15.61120937 -16.34809881 -10.77242273 0 0 Z " fill="#FBF4D8" transform="translate(129.828125,25.78125)"/>
<path d="M0 0 C3.66311906 2.56237885 7.01004669 5.05692169 10.171875 8.21875 C10.171875 8.87875 10.171875 9.53875 10.171875 10.21875 C10.831875 10.21875 11.491875 10.21875 12.171875 10.21875 C13.4609375 11.6796875 13.4609375 11.6796875 14.796875 13.59375 C15.24289063 14.22023438 15.68890625 14.84671875 16.1484375 15.4921875 C17.171875 17.21875 17.171875 17.21875 17.171875 19.21875 C17.831875 19.21875 18.491875 19.21875 19.171875 19.21875 C30.47636163 39.25711398 34.07684251 58.64737177 28.171875 81.21875 C25.50967799 89.46863523 21.52421535 97.36991147 16.171875 104.21875 C15.511875 104.21875 14.851875 104.21875 14.171875 104.21875 C13.511875 105.86875 12.851875 107.51875 12.171875 109.21875 C11.511875 109.21875 10.851875 109.21875 10.171875 109.21875 C10.171875 109.87875 10.171875 110.53875 10.171875 111.21875 C-5.71694127 126.50997805 -24.02858482 131.62529146 -45.4140625 131.37109375 C-58.30823158 131.04040395 -69.87758872 126.90367041 -80.828125 120.21875 C-81.45203125 119.84363281 -82.0759375 119.46851563 -82.71875 119.08203125 C-84.13225984 118.19363371 -85.48840691 117.21495063 -86.828125 116.21875 C-86.828125 115.55875 -86.828125 114.89875 -86.828125 114.21875 C-87.42625 113.950625 -88.024375 113.6825 -88.640625 113.40625 C-90.82660354 112.21957594 -92.24145094 111.12275887 -93.828125 109.21875 C-93.828125 108.55875 -93.828125 107.89875 -93.828125 107.21875 C-95.313125 106.72375 -95.313125 106.72375 -96.828125 106.21875 C-105.10019177 96.69215178 -109.24903171 85.38231159 -111.828125 73.21875 C-112.01375 72.44144531 -112.199375 71.66414063 -112.390625 70.86328125 C-115.75723649 50.51331716 -109.57450191 31.1186622 -97.81640625 14.640625 C-97.16027344 13.84140625 -96.50414063 13.0421875 -95.828125 12.21875 C-95.168125 12.21875 -94.508125 12.21875 -93.828125 12.21875 C-93.6115625 11.66058594 -93.395 11.10242188 -93.171875 10.52734375 C-87.12650234 0.14125292 -73.47721874 -5.99439484 -62.4453125 -9.10546875 C-61.58164063 -9.32847656 -60.71796875 -9.55148438 -59.828125 -9.78125 C-58.6215625 -10.12929687 -57.415 -10.47734375 -56.171875 -10.8359375 C-36.8038609 -15.61120937 -16.34809881 -10.77242273 0 0 Z M-52.828125 -9.78125 C-52.168125 -6.48125 -51.508125 -3.18125 -50.828125 0.21875 C-51.61574219 0.42628906 -52.40335938 0.63382813 -53.21484375 0.84765625 C-71.75712441 6.0921593 -84.4087086 15.14825792 -94.265625 31.62109375 C-101.55364946 45.00416247 -103.06491671 60.81333125 -99.203125 75.46875 C-95.13814242 87.87468301 -89.38142618 97.38532081 -79.828125 106.21875 C-78.343125 106.71375 -78.343125 106.71375 -76.828125 107.21875 C-76.828125 108.20875 -76.828125 109.19875 -76.828125 110.21875 C-77.776875 110.528125 -78.725625 110.8375 -79.703125 111.15625 C-82.68892908 112.09269742 -82.68892908 112.09269742 -84.828125 113.21875 C-83.19371581 118.12197758 -79.24597494 119.82932921 -74.828125 122.21875 C-72.11283038 123.44011241 -69.36085368 124.53606558 -66.578125 125.59375 C-65.55029907 125.98784058 -65.55029907 125.98784058 -64.50170898 126.38989258 C-59.24945368 128.43841274 -59.24945368 128.43841274 -53.828125 128.21875 C-52.8816948 127.10855548 -51.98064293 125.95917112 -51.109375 124.7890625 C-49.37262811 122.58822316 -48.3931505 121.40077338 -45.703125 120.53417969 C-43.23496584 120.25959698 -40.81085018 120.14583185 -38.328125 120.09375 C-21.58320702 119.06082886 -7.58722255 112.98817479 4.10546875 100.66796875 C15.69873287 86.92699218 20.46869481 71.06546067 19.171875 53.21875 C18.00034405 44.44703509 15.47224711 36.94062831 11.4765625 29.05859375 C10.171875 26.21875 10.171875 26.21875 9.70703125 23.62109375 C8.03329118 16.10758904 -0.52393742 10.67523304 -6.53125 6.62890625 C-10.86501077 3.90825556 -10.86501077 3.90825556 -15.828125 3.21875 C-15.828125 3.87875 -15.828125 4.53875 -15.828125 5.21875 C-17.828125 4.21875 -17.828125 4.21875 -18.6640625 2.234375 C-19.65894571 0.02297678 -19.65894571 0.02297678 -21.9921875 -0.609375 C-22.80429688 -0.74859375 -23.61640625 -0.8878125 -24.453125 -1.03125 C-25.27039063 -1.18078125 -26.08765625 -1.3303125 -26.9296875 -1.484375 C-27.55617188 -1.58234375 -28.18265625 -1.6803125 -28.828125 -1.78125 C-28.828125 -0.79125 -28.828125 0.19875 -28.828125 1.21875 C-31.468125 0.55875 -34.108125 -0.10125 -36.828125 -0.78125 C-36.828125 -3.75125 -36.828125 -6.72125 -36.828125 -9.78125 C-42.108125 -9.78125 -47.388125 -9.78125 -52.828125 -9.78125 Z " fill="#C25139" transform="translate(129.828125,25.78125)"/>
<path d="M0 0 C10.90813505 -0.61744161 20.38977267 3.11794856 30 8 C30.83402344 8.41894531 31.66804688 8.83789062 32.52734375 9.26953125 C48.59356179 18.07676294 59.34937234 34.16907886 64.421875 51.48046875 C68.62701089 69.80690558 65.78182255 88.46280169 57 105 C52.72329799 111.54534681 47.95647956 117.89444609 42 123 C41.01 123 40.02 123 39 123 C38.77699219 123.58910156 38.55398437 124.17820312 38.32421875 124.78515625 C35.49123378 129.52351164 29.78500386 131.59676936 25 134 C23.46085937 134.7734375 23.46085937 134.7734375 21.890625 135.5625 C8.99080928 140.89200133 -5.30850484 139.4481555 -19 139 C-18.04270084 137.87411986 -17.08412105 136.7493285 -16.125 135.625 C-15.59132813 134.99851563 -15.05765625 134.37203125 -14.5078125 133.7265625 C-11.30064674 130.05410844 -11.30064674 130.05410844 -9.15917969 129.66870117 C-8.42086914 129.62720947 -7.68255859 129.58571777 -6.921875 129.54296875 C-6.09743896 129.48536377 -5.27300293 129.42775879 -4.42358398 129.3684082 C-3.54130127 129.3087085 -2.65901855 129.24900879 -1.75 129.1875 C14.4499648 127.80314726 28.78735044 122.29436982 40.15625 110.2265625 C51.56087586 96.45402703 56.29091567 80.7654585 55 63 C53.82846905 54.22828509 51.30037211 46.72187831 47.3046875 38.83984375 C46 36 46 36 45.50390625 33.37109375 C43.98983874 26.2467606 36.12666985 21.28150825 30.4453125 17.4765625 C27.37427951 15.62216877 24.36174039 14.24238232 21 13 C21 13.66 21 14.32 21 15 C20.01 14.67 19.02 14.34 18 14 C17.505 12.515 17.505 12.515 17 11 C14.90280128 9.97718482 14.90280128 9.97718482 12.4375 9.3125 C11.19806641 8.93544922 11.19806641 8.93544922 9.93359375 8.55078125 C9.29550781 8.36902344 8.65742187 8.18726563 8 8 C8 8.99 8 9.98 8 11 C1.73 10.67 -4.54 10.34 -11 10 C-11 9.67 -11 9.34 -11 9 C-7.37 9 -3.74 9 0 9 C-0.185625 7.88625 -0.37125 6.7725 -0.5625 5.625 C-1 2 -1 2 0 0 Z " fill="#C2523A" transform="translate(93,16)"/>
<path d="M0 0 C1.65322266 0.01740234 1.65322266 0.01740234 3.33984375 0.03515625 C4.44457031 0.04417969 5.54929687 0.05320313 6.6875 0.0625 C7.54214844 0.07410156 8.39679688 0.08570313 9.27734375 0.09765625 C8.52970843 7.21842681 7.17560216 14.20976479 5.80322266 21.23168945 C5.40676981 23.26248415 5.01557621 25.29423978 4.625 27.32617188 C3.01824477 35.62824511 1.22522406 43.86873675 -0.72265625 52.09765625 C3.56734375 52.09765625 7.85734375 52.09765625 12.27734375 52.09765625 C12.27734375 48.13765625 12.27734375 44.17765625 12.27734375 40.09765625 C19.2109375 40 19.2109375 40 21.27734375 40.09765625 C22.27734375 41.09765625 22.27734375 41.09765625 22.39086914 43.50610352 C22.38563232 44.54822998 22.38039551 45.59035645 22.375 46.6640625 C22.37177734 47.78876953 22.36855469 48.91347656 22.36523438 50.07226562 C22.35266602 51.84827148 22.35266602 51.84827148 22.33984375 53.66015625 C22.33533203 54.84802734 22.33082031 56.03589844 22.32617188 57.25976562 C22.3143405 60.20577851 22.29785662 63.15169306 22.27734375 66.09765625 C24.58734375 66.09765625 26.89734375 66.09765625 29.27734375 66.09765625 C29.27734375 68.07765625 29.27734375 70.05765625 29.27734375 72.09765625 C23.5480023 73.09406346 18.09424362 73.17733981 12.27734375 73.09765625 C12.27734375 69.46765625 12.27734375 65.83765625 12.27734375 62.09765625 C3.03734375 62.09765625 -6.20265625 62.09765625 -15.72265625 62.09765625 C-15.05733691 56.10978219 -14.28745523 50.4844294 -12.98046875 44.65234375 C-12.81143036 43.87939972 -12.64239197 43.10645569 -12.4682312 42.31008911 C-11.93237159 39.86330192 -11.39035112 37.41793553 -10.84765625 34.97265625 C-10.13987763 31.76216726 -9.43494844 28.55105798 -8.73046875 25.33984375 C-8.47321014 24.17325226 -8.47321014 24.17325226 -8.21075439 22.98309326 C-6.81343766 16.61223098 -5.54724477 10.2208032 -4.33154297 3.81298828 C-3.50470607 0.12570682 -3.50470607 0.12570682 0 0 Z " fill="#F8AB0C" transform="translate(76.72265625,45.90234375)"/>
<path d="M0 0 C10.90813505 -0.61744161 20.38977267 3.11794856 30 8 C30.83402344 8.41894531 31.66804688 8.83789062 32.52734375 9.26953125 C47.68201979 17.57707088 58.27252107 32.58217572 63.75 48.75 C65.52723496 55.03558806 65.72856137 61.5041928 66 68 C62.7 68 59.4 68 56 68 C55.78085938 66.77925781 55.56171875 65.55851562 55.3359375 64.30078125 C53.59568339 55.10617349 51.6172906 47.00735766 47.26953125 38.6640625 C46 36 46 36 45.5078125 33.390625 C43.99161327 26.25282553 36.13898532 21.28975622 30.4453125 17.4765625 C27.37427951 15.62216877 24.36174039 14.24238232 21 13 C21 13.66 21 14.32 21 15 C20.01 14.67 19.02 14.34 18 14 C17.67 13.01 17.34 12.02 17 11 C14.90280128 9.97718482 14.90280128 9.97718482 12.4375 9.3125 C11.19806641 8.93544922 11.19806641 8.93544922 9.93359375 8.55078125 C9.29550781 8.36902344 8.65742187 8.18726563 8 8 C8 8.99 8 9.98 8 11 C1.73 10.67 -4.54 10.34 -11 10 C-11 9.67 -11 9.34 -11 9 C-7.37 9 -3.74 9 0 9 C-0.185625 7.88625 -0.37125 6.7725 -0.5625 5.625 C-1 2 -1 2 0 0 Z " fill="#E8AC11" transform="translate(93,16)"/>
<path d="M0 0 C3.96 0 7.92 0 12 0 C11.33812918 6.92662786 10.1798677 13.6429025 8.78515625 20.45703125 C8.46145302 22.05510872 8.46145302 22.05510872 8.13121033 23.68547058 C7.6768223 25.92215566 7.22037395 28.15842308 6.76196289 30.39428711 C6.06135706 33.81808544 5.37116381 37.24387655 4.68164062 40.66992188 C4.23760686 42.84908633 3.79296662 45.02812731 3.34765625 47.20703125 C3.14237808 48.2299678 2.93709991 49.25290436 2.7256012 50.30683899 C2.52877243 51.25850449 2.33194366 52.21016998 2.12915039 53.19067383 C1.95895889 54.02512527 1.7887674 54.85957672 1.61341858 55.71931458 C1 58 1 58 -1 62 C-4.96 62 -8.92 62 -13 62 C-12.35816633 55.22672628 -11.21654107 48.69869437 -9.78515625 42.05078125 C-9.5693541 41.03453171 -9.35355194 40.01828217 -9.13121033 38.97123718 C-8.67691514 36.83706173 -8.22046609 34.70334373 -7.76196289 32.57006836 C-7.06259033 29.31292071 -6.37163656 26.05406727 -5.68164062 22.79492188 C-5.23747866 20.71343502 -4.79283379 18.63205114 -4.34765625 16.55078125 C-4.14237808 15.58191483 -3.93709991 14.6130484 -3.7256012 13.61482239 C-2.72228557 8.96867713 -1.63184712 4.47625705 0 0 Z " fill="#FBAC0A" transform="translate(54,46)"/>
<path d="M0 0 C3.114375 -0.020625 6.22875 -0.04125 9.4375 -0.0625 C10.91174438 -0.07615601 10.91174438 -0.07615601 12.41577148 -0.09008789 C13.18477783 -0.09258545 13.95378418 -0.09508301 14.74609375 -0.09765625 C15.93223267 -0.10551147 15.93223267 -0.10551147 17.14233398 -0.11352539 C19 0 19 0 20 1 C20.1002093 3.27947792 20.13081303 5.56207135 20.1328125 7.84375 C20.13424759 8.87018616 20.13424759 8.87018616 20.13571167 9.9173584 C20.1363933 11.36661877 20.13454023 12.81588218 20.13037109 14.26513672 C20.12502252 16.49062928 20.1303166 18.71592001 20.13671875 20.94140625 C20.13605797 22.34635461 20.1347768 23.75130285 20.1328125 25.15625 C20.13168457 26.44337891 20.13055664 27.73050781 20.12939453 29.05664062 C20 32 20 32 19 33 C17.58429877 33.08651611 16.164405 33.10704904 14.74609375 33.09765625 C13.9770874 33.09515869 13.20808105 33.09266113 12.41577148 33.09008789 C11.43294189 33.08098389 10.4501123 33.07187988 9.4375 33.0625 C4.7659375 33.0315625 4.7659375 33.0315625 0 33 C0 22.11 0 11.22 0 0 Z " fill="#343432" transform="translate(108,86)"/>
<path d="M0 0 C3.3 0 6.6 0 10 0 C10.15855469 0.93199219 10.31710938 1.86398438 10.48046875 2.82421875 C13.5184747 19.42415183 18.68475601 33.91135078 32.53125 44.5625 C33.0159375 45.036875 33.500625 45.51125 34 46 C34 46.99 34 47.98 34 49 C31.03 50.32 28.06 51.64 25 53 C12.38064615 43.53548461 3.38496383 28.46170877 0.38671875 13.03125 C-0.17511144 8.62740931 -0.19852911 4.43381671 0 0 Z " fill="#F5B50E" transform="translate(19,87)"/>
<path d="M0 0 C0.66 0 1.32 0 2 0 C0.49224837 3.2086143 -1.33849118 6.05868309 -3.3125 9 C-11.25578903 21.42793763 -13.88560029 33.51280382 -15 48 C-11.7 48 -8.4 48 -5 48 C-5 48.33 -5 48.66 -5 49 C-8.3 49 -11.6 49 -15 49 C-13.91532617 61.35429937 -13.91532617 61.35429937 -10 73 C-9.53851562 74.04414062 -9.07703125 75.08828125 -8.6015625 76.1640625 C-0.56978606 93.4719751 11.69240655 105.95898355 29.6875 112.5625 C32.11519636 113.41371068 34.5496894 114.21416074 37 115 C37.99 115.33 38.98 115.66 40 116 C61.57584051 117.50520258 79.25392106 116.00804816 97 103 C97.33 102.34 97.66 101.68 98 101 C98.76570313 100.54496094 99.53140625 100.08992188 100.3203125 99.62109375 C112.45524049 92.279993 119.18531972 76.58319787 122.68359375 63.4296875 C126.16284396 47.35315206 124.32958683 30.71366874 117 16 C116.24305507 14.31560378 115.49292976 12.62812462 114.75 10.9375 C114.41484375 10.18339844 114.0796875 9.42929687 113.734375 8.65234375 C113.49203125 8.10707031 113.2496875 7.56179687 113 7 C113.66 7 114.32 7 115 7 C126.30448663 27.03836398 129.90496751 46.42862177 124 69 C121.33780299 77.24988523 117.35234035 85.15116147 112 92 C111.34 92 110.68 92 110 92 C109.34 93.65 108.68 95.3 108 97 C107.34 97 106.68 97 106 97 C106 97.66 106 98.32 106 99 C90.11118373 114.29122805 71.79954018 119.40654146 50.4140625 119.15234375 C37.51989342 118.82165395 25.95053628 114.68492041 15 108 C14.37609375 107.62488281 13.7521875 107.24976563 13.109375 106.86328125 C11.69586516 105.97488371 10.33971809 104.99620063 9 104 C9 103.34 9 102.68 9 102 C8.401875 101.731875 7.80375 101.46375 7.1875 101.1875 C5.00152146 100.00082594 3.58667406 98.90400887 2 97 C2 96.34 2 95.68 2 95 C0.515 94.505 0.515 94.505 -1 94 C-9.27206677 84.47340178 -13.42090671 73.16356159 -16 61 C-16.185625 60.22269531 -16.37125 59.44539063 -16.5625 58.64453125 C-19.92911149 38.29456716 -13.74637691 18.8999122 -1.98828125 2.421875 C-1.33214844 1.62265625 -0.67601563 0.8234375 0 0 Z " fill="#1D0F05" transform="translate(34,38)"/>
<path d="M0 0 C2.5 2.25 2.5 2.25 5 5 C5 6.32 5 7.64 5 9 C0.04424444 13.68629368 -6.71208256 16.54647304 -13 19 C-13.69343506 19.27279785 -14.38687012 19.5455957 -15.10131836 19.82666016 C-22.75065591 22.47460403 -30.10227845 22.34270146 -38.125 22.1875 C-39.47654746 22.17241432 -40.82811135 22.15873283 -42.1796875 22.14648438 C-45.45355371 22.11140724 -48.7265568 22.06225097 -52 22 C-51.04270084 20.87411986 -50.08412105 19.7493285 -49.125 18.625 C-48.59132813 17.99851563 -48.05765625 17.37203125 -47.5078125 16.7265625 C-44.30064674 13.05410844 -44.30064674 13.05410844 -42.15917969 12.66870117 C-41.05171387 12.60646362 -41.05171387 12.60646362 -39.921875 12.54296875 C-39.0973584 12.4852832 -38.2728418 12.42759766 -37.42333984 12.36816406 C-36.10003662 12.27873535 -36.10003662 12.27873535 -34.75 12.1875 C-21.66571968 11.07901942 -10.99328881 7.37107614 0 0 Z " fill="#F5B50E" transform="translate(126,133)"/>
<path d="M0 0 C6.93359375 -0.09765625 6.93359375 -0.09765625 9 0 C10 1 10 1 10.11352539 3.40844727 C10.10828857 4.45057373 10.10305176 5.4927002 10.09765625 6.56640625 C10.09443359 7.69111328 10.09121094 8.81582031 10.08789062 9.97460938 C10.07951172 11.15861328 10.07113281 12.34261719 10.0625 13.5625 C10.05798828 14.75037109 10.05347656 15.93824219 10.04882812 17.16210938 C10.03699675 20.10812226 10.02051287 23.05403681 10 26 C12.31 26 14.62 26 17 26 C17 27.98 17 29.96 17 32 C11.27065855 32.99640721 5.81689987 33.07968356 0 33 C0 29.37 0 25.74 0 22 C-5.28 22 -10.56 22 -16 22 C-15.34 19.03 -14.68 16.06 -14 13 C-9.38 13 -4.76 13 0 13 C0 8.71 0 4.42 0 0 Z " fill="#302F2E" transform="translate(89,86)"/>
<path d="M0 0 C2.35448165 2.55068845 2.98327924 3.71017358 3.1875 7.25 C3.0946875 8.61125 3.0946875 8.61125 3 10 C3.66 10.33 4.32 10.66 5 11 C4.319375 11.12375 3.63875 11.2475 2.9375 11.375 C-4.61883877 12.98273165 -10.88799296 15.70135424 -17.56640625 19.48242188 C-22.39454196 22.10766067 -22.39454196 22.10766067 -25.21875 21.60546875 C-27.68443418 19.38310866 -29.28179543 16.82276464 -31 14 C-21.3776178 6.89776552 -11.90852914 2.11459863 0 0 Z " fill="#F5B510" transform="translate(76,16)"/>
<path d="M0 0 C1.14597656 0.55429688 2.29195312 1.10859375 3.47265625 1.6796875 C5.00246734 2.41174434 6.53242298 3.14349916 8.0625 3.875 C8.81466797 4.23980469 9.56683594 4.60460937 10.34179688 4.98046875 C18.22003938 8.7320128 25.25216389 10.30796872 33.9375 10.625 C34.81212891 10.66367188 35.68675781 10.70234375 36.58789062 10.7421875 C38.72494631 10.8356107 40.86244294 10.91885398 43 11 C43 11.33 43 11.66 43 12 C42.05898437 11.99097656 41.11796875 11.98195312 40.1484375 11.97265625 C33.12025223 11.80609975 33.12025223 11.80609975 27.05078125 14.66015625 C26.16009337 15.94386973 25.27320039 17.23022684 24.390625 18.51953125 C23 20 23 20 21.109375 20.44921875 C11.08699298 19.81831341 -0.47252634 13.45767766 -8 7 C-8 6.34 -8 5.68 -8 5 C-2.25 2 -2.25 2 0 2 C0 1.34 0 0.68 0 0 Z " fill="#F2EACE" transform="translate(53,134)"/>
<path d="M0 0 C1.953125 1.59375 1.953125 1.59375 4.515625 4.15625 C4.515625 4.81625 4.515625 5.47625 4.515625 6.15625 C5.175625 6.15625 5.835625 6.15625 6.515625 6.15625 C7.8046875 7.6875 7.8046875 7.6875 9.140625 9.65625 C9.58664063 10.3059375 10.03265625 10.955625 10.4921875 11.625 C10.99878906 12.38296875 10.99878906 12.38296875 11.515625 13.15625 C11.185625 13.81625 10.855625 14.47625 10.515625 15.15625 C9.814375 14.35960938 9.113125 13.56296875 8.390625 12.7421875 C-3.48330555 -0.59311754 -18.59430052 -11.89121148 -37.17236328 -13.00488281 C-40.31814206 -13.05071323 -43.46329052 -13.07901424 -46.609375 -13.09375 C-48.22585937 -13.1246875 -48.22585937 -13.1246875 -49.875 -13.15625 C-68.79572656 -13.24743422 -84.91015192 -4.64008064 -98.484375 8.15625 C-98.484375 5.15625 -98.484375 5.15625 -96.68359375 3.10546875 C-90.69275223 -2.28908372 -84.74627924 -6.3539702 -77.484375 -9.84375 C-76.370625 -10.400625 -75.256875 -10.9575 -74.109375 -11.53125 C-48.01128335 -20.98055905 -21.99375774 -16.32241141 0 0 Z " fill="#322A15" transform="translate(135.484375,29.84375)"/>
<path d="M0 0 C2.97 0 5.94 0 9 0 C9 7.59 9 15.18 9 23 C6.03 23 3.06 23 0 23 C0 15.41 0 7.82 0 0 Z " fill="#F9F2D6" transform="translate(113,91)"/>
<path d="M0 0 C1.38529821 5.45461169 2.2396943 10.36718401 2 16 C-1.3 16 -4.6 16 -8 16 C-10 6.5 -10 6.5 -10 2 C-8.7090864 1.66376204 -7.41723903 1.33110751 -6.125 1 C-5.40570313 0.814375 -4.68640625 0.62875 -3.9453125 0.4375 C-2 0 -2 0 0 0 Z " fill="#EFB110" transform="translate(157,68)"/>
<path d="M0 0 C3.3 0 6.6 0 10 0 C10.33 4.62 10.66 9.24 11 14 C6.545 14.495 6.545 14.495 2 15 C-0.62738484 10.07365343 -0.14517315 5.44399329 0 0 Z " fill="#F7B50B" transform="translate(19,87)"/>
<path d="M0 0 C9.77434835 1.48665788 18.40338556 9.79050363 24.7578125 16.9921875 C26 19 26 19 26 23 C22.74396181 21.60859106 21.00575442 20.06896049 18.8125 17.3125 C13.58299843 11.1403415 7.43082897 6.23907929 0 3 C0 2.01 0 1.02 0 0 Z " fill="#DFD8C0" transform="translate(114,29)"/>
<path d="M0 0 C-1.25103516 0.36351563 -1.25103516 0.36351563 -2.52734375 0.734375 C-17.36051443 5.15204324 -29.63501627 11.28630473 -41 22 C-41 19 -41 19 -39.19921875 16.94921875 C-33.21077093 11.55682173 -27.2642458 7.48055054 -20 4 C-19.36191406 3.68289062 -18.72382812 3.36578125 -18.06640625 3.0390625 C-12.46788026 0.42727901 -6.06463878 -1.91659013 0 0 Z " fill="#160D02" transform="translate(78,16)"/>
<path d="M0 0 C0.33 0 0.66 0 1 0 C1 8.25 1 16.5 1 25 C3.31 25 5.62 25 8 25 C8 26.98 8 28.96 8 31 C4.04 31.495 4.04 31.495 0 32 C0 21.44 0 10.88 0 0 Z " fill="#E7E0C7" transform="translate(98,87)"/>
<path d="M0 0 C2.45823172 3.68734758 3.01242616 6.69699971 4 11 C3.34 10.67 2.68 10.34 2 10 C2 9.01 2 8.02 2 7 C0.51882199 7.28127421 -0.95993249 7.57533732 -2.4375 7.875 C-3.67306641 8.11863281 -3.67306641 8.11863281 -4.93359375 8.3671875 C-5.61550781 8.57601562 -6.29742188 8.78484375 -7 9 C-7.33 9.66 -7.66 10.32 -8 11 C-8.66 7.7 -9.32 4.4 -10 1 C-9.67 1.66 -9.34 2.32 -9 3 C-4.545 2.505 -4.545 2.505 0 2 C0 1.34 0 0.68 0 0 Z " fill="#A45931" transform="translate(30,99)"/>
<path d="M0 0 C0.56847656 0.38671875 1.13695312 0.7734375 1.72265625 1.171875 C12.50571343 8.44458802 23.32452074 13.75743554 36 17 C36 17.33 36 17.66 36 18 C25.20882887 17.29238222 16.18458998 13.58209061 7 8 C6.38769531 7.64808594 5.77539062 7.29617187 5.14453125 6.93359375 C1.16114888 4.52085621 1.16114888 4.52085621 0.34375 1.87890625 C0.2303125 1.25886719 0.116875 0.63882813 0 0 Z " fill="#181711" transform="translate(42,138)"/>
<path d="M0 0 C-0.66 0 -1.32 0 -2 0 C-2 0.66 -2 1.32 -2 2 C-8.85361637 3.69075998 -15.53193483 4.21635422 -22.5625 4.25 C-23.75915283 4.26353516 -23.75915283 4.26353516 -24.97998047 4.27734375 C-30.75240462 4.24759538 -30.75240462 4.24759538 -33 2 C-32.26885986 1.98018066 -31.53771973 1.96036133 -30.78442383 1.93994141 C-27.46009731 1.84447086 -24.13638014 1.73488034 -20.8125 1.625 C-19.66201172 1.5940625 -18.51152344 1.563125 -17.32617188 1.53125 C-15.65844727 1.47324219 -15.65844727 1.47324219 -13.95703125 1.4140625 C-12.93585205 1.3826416 -11.91467285 1.3512207 -10.86254883 1.31884766 C-7.96500606 1.12689487 -7.96500606 1.12689487 -5.31518555 -0.08837891 C-3 -1 -3 -1 0 0 Z " fill="#3C2B01" transform="translate(111,153)"/>
<path d="M0 0 C0.66 0.33 1.32 0.66 2 1 C-1.77883679 5.10585151 -5.68944587 7.89166309 -10.5 10.6875 C-11.15097656 11.07744141 -11.80195312 11.46738281 -12.47265625 11.86914062 C-21.64579995 17.28963463 -21.64579995 17.28963463 -25.14257812 16.54174805 C-25.75552734 16.36297119 -26.36847656 16.18419434 -27 16 C-25.37191406 15.20335937 -25.37191406 15.20335937 -23.7109375 14.390625 C-22.26551761 13.6773009 -20.82021111 12.96374699 -19.375 12.25 C-18.66214844 11.90195313 -17.94929688 11.55390625 -17.21484375 11.1953125 C-9.52440638 7.80361597 -9.52440638 7.80361597 -4 2 C-2.0625 0.8125 -2.0625 0.8125 0 0 Z " fill="#1A1101" transform="translate(136,137)"/>
<path d="M0 0 C0.33 1.65 0.66 3.3 1 5 C-2.50776784 6.60355101 -5.14354879 7.22036864 -9 7 C-9.33 5.35 -9.66 3.7 -10 2 C-6.38026598 0.68373308 -3.90432869 0 0 0 Z " fill="#9D4729" transform="translate(156,63)"/>
<path d="M0 0 C2 3 2 3 3.41015625 5.56640625 C7.47647111 12.93960601 12.12523625 18.97870019 18 25 C17.67 25.66 17.34 26.32 17 27 C15.29115995 25.37660195 13.62553283 23.70680947 12 22 C12 21.34 12 20.68 12 20 C11.01 19.67 10.02 19.34 9 19 C7.24609375 16.85546875 7.24609375 16.85546875 5.4375 14.1875 C4.83808594 13.31480469 4.23867188 12.44210938 3.62109375 11.54296875 C0.99986948 7.43112055 -0.27438514 4.93893247 0 0 Z " fill="#221900" transform="translate(24,113)"/>
<path d="M0 0 C3.92297846 0.56340648 6.49080356 1.70090379 9.75 3.9375 C10.52859375 4.46214844 11.3071875 4.98679687 12.109375 5.52734375 C14 7 14 7 15 9 C10.70790601 9.34800762 8.33970487 8.41128697 4.6875 6.1875 C3.80449219 5.66542969 2.92148438 5.14335938 2.01171875 4.60546875 C1.01591797 3.81076172 1.01591797 3.81076172 0 3 C0 2.01 0 1.02 0 0 Z " fill="#E5DEC5" transform="translate(114,29)"/>
<path d="M0 0 C4.82297422 2.60440608 8.97166683 5.26642292 13 9 C13 9.66 13 10.32 13 11 C13.66 11 14.32 11 15 11 C16.2890625 12.53125 16.2890625 12.53125 17.625 14.5 C18.07101563 15.1496875 18.51703125 15.799375 18.9765625 16.46875 C19.31429687 16.9740625 19.65203125 17.479375 20 18 C19.67 18.66 19.34 19.32 19 20 C18.29875 19.20335938 17.5975 18.40671875 16.875 17.5859375 C12.04758918 12.17248123 7.45939857 7.11743793 1.36328125 3.0859375 C0.91339844 2.72757813 0.46351562 2.36921875 0 2 C0 1.34 0 0.68 0 0 Z " fill="#1A1300" transform="translate(127,25)"/>
<path d="M0 0 C0.33 0 0.66 0 1 0 C1.60617022 8.85682048 -0.0658881 15.1317762 -4 23 C-4.66 22.67 -5.32 22.34 -6 22 C-5.60167969 21.00033203 -5.60167969 21.00033203 -5.1953125 19.98046875 C-2.66505708 13.37779494 -1.02786255 6.99217021 0 0 Z " fill="#250E0A" transform="translate(158,93)"/>
<path d="M0 0 C-1.23363281 0.36351563 -1.23363281 0.36351563 -2.4921875 0.734375 C-9.48470044 2.83374378 -16.27864328 5.1475958 -23 8 C-23 7.01 -23 6.02 -23 5 C-6.59471024 -2.05530207 -6.59471024 -2.05530207 0 0 Z " fill="#191201" transform="translate(78,16)"/>
<path d="M0 0 C0.66 0 1.32 0 2 0 C-0.04378913 4.34305189 -2.71455173 8.24102266 -5.34375 12.24609375 C-6.87064144 14.78491089 -7.99140634 17.22132447 -9 20 C-9.33 20 -9.66 20 -10 20 C-9.57632129 14.1651265 -7.99539317 10.7417644 -4.5625 6.0625 C-4.15451172 5.47404297 -3.74652344 4.88558594 -3.32617188 4.27929688 C-2.27834388 2.80755152 -1.14518181 1.39733193 0 0 Z " fill="#190A06" transform="translate(34,38)"/>
<path d="M0 0 C1.98 0 3.96 0 6 0 C6 1.98 6 3.96 6 6 C4.02 6 2.04 6 0 6 C0 4.02 0 2.04 0 0 Z " fill="#3B3A37" transform="translate(100,112)"/>
<path d="M0 0 C4.455 0.99 4.455 0.99 9 2 C9.33 3.32 9.66 4.64 10 6 C6.7 5.34 3.4 4.68 0 4 C0 2.68 0 1.36 0 0 Z " fill="#DFD8C0" transform="translate(101,24)"/>
<path d="M0 0 C-2.09782787 2.09782787 -3.3799207 2.6509396 -6.125 3.625 C-6.84945312 3.88539062 -7.57390625 4.14578125 -8.3203125 4.4140625 C-9.15175781 4.70410156 -9.15175781 4.70410156 -10 5 C-10 4.01 -10 3.02 -10 2 C-6.49223216 0.39644899 -3.85645121 -0.22036864 0 0 Z " fill="#281D01" transform="translate(65,19)"/>
</svg>
